<svg width="30px" height="30px" viewBox="0 0 128 128" xml:space="preserve" xmlns="http://www.w3.org/2000/svg"><path d="M128 112c0 8.8-7.2 16-16 16H16c-8.8 0-16-7.2-16-16V16C0 7.2 7.2 0 16 0h96c8.8 0 16 7.2 16 16v96z" fill="#ffffff" class="fill-176ae6"></path><path d="M53.328 128V78.188H35.549V60.425h17.783V44.029c0-16.537 9.764-26.279 24.514-26.279 7.068 0 14.605 1.652 14.605 1.652v17.912l-11.874-.005c-8.022 0-9.522 3.979-9.522 9.572v13.544H91.61l-2.903 17.763H71.055V128H53.328z" fill="#000000" class="fill-ffffff"></path></svg>