<svg width="30" height="30" xmlns="http://www.w3.org/2000/svg">
 <title/>
 <desc/>

 <g>
  <title>background</title>
  <rect fill="none" id="canvas_background" height="32" width="32" y="-1" x="-1"/>
 </g>
 <g>
  <title>Layer 1</title>
  <path stroke="null" fill="#ffffff" id="square-60" d="m1.490761,0.090253l26.874101,0c0.823324,0 1.490761,0.663425 1.490761,1.486254l0,26.792863c0,0.820835 -0.665437,1.486254 -1.490761,1.486254l-26.874101,0c-0.823324,0 -1.490761,-0.663425 -1.490761,-1.486254l0,-26.792863c0,-0.820835 0.665437,-1.486254 1.490761,-1.486254z"/>
  <path stroke="null" fill="#000000" id="github" d="m11.800681,27.112095c0,-0.301609 -0.011092,-1.099655 -0.017435,-2.159566c-3.591253,0.766873 -4.348981,-1.702088 -4.348981,-1.702088c-0.587311,-1.466727 -1.433806,-1.857179 -1.433806,-1.857179c-1.172251,-0.787918 0.088775,-0.771554 0.088775,-0.771554c1.295895,0.089627 1.977527,1.308525 1.977527,1.308525c1.151641,1.939784 3.021377,1.380219 3.757698,1.05523c0.117308,-0.820647 0.450987,-1.380219 0.81955,-1.697414c-2.866822,-0.320307 -5.881066,-1.409835 -5.881066,-6.274502c0,-1.385678 0.503298,-2.518845 1.329184,-3.406517c-0.132365,-0.321092 -0.576219,-1.61169 0.126812,-3.359759c0,0 1.084273,-0.341353 3.550041,1.30151c1.029584,-0.281349 2.13446,-0.423187 3.232999,-0.427861c1.096162,0.004675 2.200254,0.146512 3.232209,0.427861c2.464187,-1.642862 3.546873,-1.30151 3.546873,-1.30151c0.704619,1.747291 0.261555,3.037889 0.1284,3.359759c0.827473,0.887672 1.326806,2.02084 1.326806,3.406517c0,4.877134 -3.019,5.950298 -5.895332,6.264368c0.464464,0.392014 0.876609,1.16668 0.876609,2.351287c0,1.697414 -0.016644,3.066721 -0.016644,3.482892c0,0.339797 0.233029,0.734145 0.888505,0.610227c5.125723,-1.681828 8.821599,-6.437392 8.821599,-12.043996c0,-7.011765 -5.781199,-12.695529 -12.911402,-12.695529c-7.129405,0 -12.910605,5.683764 -12.910605,12.695529c0.00079,5.608167 3.699841,10.366843 8.83032,12.045552c0.645175,0.116125 0.881365,-0.275883 0.881365,-0.611783z"/>
 </g>
</svg>