<svg width="30px" height="30px" viewBox="0 0 64 64" xmlns="http://www.w3.org/2000/svg"><defs><radialGradient cx="-578.95" cy="-837.6" gradientTransform="matrix(.75 0 0 .75 499.5 629.5)" gradientUnits="userSpaceOnUse" id="a" r="197.06"><stop offset="0" stop-color="#ffffff" class="stop-color-f9ed32"></stop><stop offset=".36" stop-color="#ffffff" class="stop-color-ee2a7b"></stop><stop offset=".44" stop-color="#ffffff" class="stop-color-d22a8a"></stop><stop offset=".6" stop-color="#ffffff" class="stop-color-8b2ab2"></stop><stop offset=".83" stop-color="#ffffff" class="stop-color-1b2af0"></stop><stop offset=".88" stop-color="#ffffff" class="stop-color-002aff"></stop></radialGradient></defs><g data-name="3-instagram"><rect height="64" rx="11.2" ry="11.2" transform="rotate(180 32 32)" width="64" fill="url(#a)" class="fillurl(-a)"></rect><path d="M44 56H20A12 12 0 0 1 8 44V20A12 12 0 0 1 20 8h24a12 12 0 0 1 12 12v24a12 12 0 0 1-12 12ZM20 12.8a7.21 7.21 0 0 0-7.2 7.2v24a7.21 7.21 0 0 0 7.2 7.2h24a7.21 7.21 0 0 0 7.2-7.2V20a7.21 7.21 0 0 0-7.2-7.2Z" fill="#000000" class="fill-ffffff"></path><path d="M32 45.6A13.6 13.6 0 1 1 45.6 32 13.61 13.61 0 0 1 32 45.6Zm0-22.4a8.8 8.8 0 1 0 8.8 8.8 8.81 8.81 0 0 0-8.8-8.8Z" fill="#000000" class="fill-ffffff"></path><circle cx="45.6" cy="19.2" r="2.4" fill="#000000" class="fill-ffffff"></circle></g></svg>